<svg xmlns="http://www.w3.org/2000/svg" xmlns:xlink="http://www.w3.org/1999/xlink" width="83" height="77" viewBox="0 0 83 77">
    <defs>
        <path id="a" d="M0 .248h82.715v76.367H0z"/>
    </defs>
    <g fill="none" fill-rule="evenodd">
        <g>
            <mask id="b" fill="#fff">
                <use xlink:href="#a"/>
            </mask>
            <path fill="#4DADE1" d="M79.658 76.615H3.056C1.368 76.615 0 75.257 0 73.582v-70.3C0 1.605 1.368.247 3.056.247h76.602c1.688 0 3.057 1.358 3.057 3.033v70.3c0 1.676-1.369 3.034-3.057 3.034" mask="url(#b)"/>
        </g>
        <path fill="#FFF" d="M23 37c-1.657 0-3-1.465-3-3.272v-9.456C20 22.465 21.343 21 23 21s3 1.465 3 3.272v9.456C26 35.535 24.657 37 23 37M60 37c-1.657 0-3-1.465-3-3.272v-9.456C57 22.465 58.343 21 60 21s3 1.465 3 3.272v9.456C63 35.535 61.657 37 60 37"/>
        <path fill="#A30B00" d="M41.052 58C37.19 58 19 56.82 19 48.815 19 45.667 21.338 45 25.2 45h31.6c3.861 0 6.2.667 6.2 3.815C63 56.82 44.927 58 41.066 58h-.014z"/>
        <path fill="#4C0500" d="M21.328 52.995c4.498-3 11.635-4.939 19.672-4.939 8.042 0 15.182 1.942 19.68 4.944 1.428-1.138 2.32-2.543 2.32-4.277C63 45.651 60.661 45 56.8 45H25.2c-3.862 0-6.2.651-6.2 3.723 0 1.731.895 3.135 2.328 4.272"/>
        <path fill="#FFF" d="M58 45.022v2.773C58 49.013 57.104 50 56 50s-2-.987-2-2.205l.005-2.793s2.282.012 2.81.001c.643-.013 1.185.019 1.185.019M25 45.022v2.773c0 1.218.896 2.205 2 2.205 1.105 0 2-.987 2-2.205l-.005-2.793s-2.282.012-2.81.001a16.584 16.584 0 0 0-1.185.019"/>
    </g>
</svg>
