<svg xmlns="http://www.w3.org/2000/svg" xmlns:xlink="http://www.w3.org/1999/xlink" width="108" height="100" viewBox="0 0 108 100">
    <defs>
        <path id="a" d="M0 .322h107.421V99.5H.001z"/>
    </defs>
    <g fill="none" fill-rule="evenodd">
        <g>
            <mask id="b" fill="#fff">
                <use xlink:href="#a"/>
            </mask>
            <path fill="#4DD0E1" d="M103.452 99.5H3.97C1.777 99.5 0 97.736 0 95.56V4.261C0 2.086 1.777.321 3.97.321h99.483c2.193 0 3.97 1.765 3.97 3.94v91.3c0 2.175-1.777 3.939-3.97 3.939" mask="url(#b)"/>
        </g>
        <path fill="#FFF" d="M29.87 48.052c-2.152 0-3.896-1.902-3.896-4.25v-12.28c0-2.347 1.744-4.25 3.896-4.25s3.896 1.903 3.896 4.25v12.28c0 2.348-1.744 4.25-3.896 4.25M77.922 48.052c-2.152 0-3.896-1.902-3.896-4.25v-12.28c0-2.347 1.744-4.25 3.896-4.25s3.896 1.903 3.896 4.25v12.28c0 2.348-1.744 4.25-3.896 4.25"/>
        <path fill="#A30B00" d="M53.314 75.325c-5.014 0-28.639-1.533-28.639-11.929 0-4.088 3.037-4.954 8.052-4.954h41.04c5.014 0 8.051.866 8.051 4.954 0 10.396-23.471 11.929-28.486 11.929h-.018z"/>
        <path fill="#4C0500" d="M27.698 68.824c5.843-3.895 15.11-6.413 25.549-6.413 10.444 0 19.717 2.521 25.559 6.42 1.854-1.478 3.012-3.303 3.012-5.554 0-3.99-3.037-4.835-8.051-4.835H32.727c-5.015 0-8.052.845-8.052 4.835 0 2.248 1.162 4.071 3.023 5.547"/>
        <path fill="#FFF" d="M75.325 58.47v3.601c0 1.582-1.164 2.864-2.597 2.864h-.001c-1.434 0-2.597-1.282-2.597-2.864l.007-3.627s2.963.016 3.649.002c.834-.018 1.539.024 1.539.024M32.468 58.47v3.601c0 1.582 1.163 2.864 2.597 2.864 1.435 0 2.597-1.282 2.597-2.864l-.006-3.627s-2.964.016-3.65.002c-.834-.018-1.538.024-1.538.024"/>
    </g>
</svg>
