<svg xmlns="http://www.w3.org/2000/svg" width="72" height="15" viewBox="0 0 72 15">
    <g fill="#FFF" fill-rule="evenodd">
        <path d="M67.09 10.062h4.882V8.409H67.09v1.653zm-5.591-5.279h1.65V0h-1.65v4.783zm4.775 1.777l4.455-4.462L69.558.927l-4.457 4.46 1.173 1.173zM56.9 6.525c-.496.195-.94.534-1.315 1.048V6.63l-1.755-.016v7.395h1.828v-3.537c0-.605.072-1.03.231-1.299.123-.283.354-.515.64-.71a1.773 1.773 0 0 1 1.011-.321l.567.037-.017-1.887-.478.037-.712.196zm-13.597 7.484h1.847V4.374h-1.847v9.635zm6.214-7.751c-1.243-.018-2.114.32-2.61.978-.319.408-.479.944-.533 1.618h1.847c.035-.32.142-.534.267-.674.194-.251.512-.377.976-.358.39-.019.692.054.905.178.211.107.301.32.318.623 0 .247-.143.445-.425.569l-1.421.229c-.656.09-1.188.249-1.596.481-.693.409-1.03 1.066-1.011 2.01-.019.656.194 1.19.619 1.581.373.321.888.497 1.51.516 1.011-.019 1.809-.268 2.378-.765v.765h1.847v-5.44c0-.89-.321-1.51-.925-1.831-.638-.337-1.348-.498-2.146-.48zm.781 4.176l.355-.193v.746c0 .638-.178 1.084-.515 1.331-.355.25-.728.374-1.155.374a1.01 1.01 0 0 1-.655-.211c-.178-.163-.268-.393-.268-.73 0-.373.144-.641.444-.836.178-.107.479-.196.87-.249l.924-.232zM37.8 4.374c-1.33-.018-2.431.444-3.354 1.403-.941.943-1.403 2.063-1.403 3.396 0 1.314.462 2.472 1.403 3.413.923.924 2.024 1.387 3.354 1.387a4.627 4.627 0 0 0 2.894-.979 4.83 4.83 0 0 0 1.669-2.541h-1.935a3.35 3.35 0 0 1-1.047 1.226c-.498.303-1.012.463-1.581.463-.816 0-1.508-.303-2.077-.873-.584-.585-.868-1.277-.851-2.096-.017-.817.267-1.511.851-2.096.569-.57 1.261-.873 2.077-.873.569 0 1.083.16 1.581.481.443.303.798.728 1.047 1.226h1.935c-.284-1.031-.835-1.884-1.669-2.541-.852-.677-1.828-1.014-2.894-.996zm27.035 3.039c-.763-.764-1.686-1.138-2.734-1.138a3.63 3.63 0 0 0-2.697 1.138c-.765.767-1.136 1.689-1.136 2.756 0 1.067.371 1.99 1.136 2.736.744.766 1.65 1.156 2.697 1.156 1.048 0 1.971-.39 2.734-1.156.745-.746 1.119-1.669 1.119-2.736a3.823 3.823 0 0 0-1.119-2.756zm-1.297 4.195c-.389.411-.868.605-1.437.605a1.883 1.883 0 0 1-1.419-.605c-.391-.408-.605-.889-.605-1.439 0-.586.214-1.067.605-1.458.39-.407.87-.604 1.419-.585.569-.019 1.048.178 1.455.585.374.391.568.872.587 1.458a2.111 2.111 0 0 1-.605 1.439zM3.41 13.997c-1.015 0-1.848-.364-2.498-1.015C-.026 12.044 0 10.886 0 9.285c0-1.602-.027-2.76.91-3.698.65-.65 1.484-1.015 2.5-1.015 1.185 0 1.914.416 2.578 1.067L4.79 6.837c-.403-.403-.73-.65-1.38-.65-.494 0-.885.181-1.146.481-.35.39-.456.833-.456 2.617 0 1.783.106 2.226.456 2.616.26.3.652.482 1.146.482.65 0 .977-.248 1.38-.65l1.198 1.196c-.664.652-1.393 1.068-2.578 1.068M10.936 11.055H9.595c-.611 0-.95.286-.95.768 0 .468.312.781.976.781.469 0 .768-.039 1.068-.325.182-.169.247-.443.247-.86v-.364zm.039 2.864v-.586c-.456.456-.885.651-1.666.651-.769 0-1.328-.195-1.731-.599-.366-.378-.561-.924-.561-1.523 0-1.08.742-1.966 2.317-1.966h1.602v-.338c0-.743-.364-1.068-1.263-1.068-.651 0-.95.156-1.301.56L7.29 7.996c.665-.729 1.316-.938 2.449-.938 1.9 0 2.889.807 2.889 2.395v4.466h-1.653zM18.396 13.92V9.817c0-.924-.586-1.236-1.12-1.236-.533 0-1.132.312-1.132 1.236v4.101h-1.692V7.137h1.653v.624c.442-.468 1.067-.702 1.692-.702.677 0 1.224.221 1.6.598.548.547.69 1.185.69 1.927v4.335h-1.691zM25.348 11.055h-1.34c-.613 0-.95.286-.95.768 0 .468.311.781.976.781.468 0 .767-.039 1.066-.325.183-.169.248-.443.248-.86v-.364zm.04 2.864v-.586c-.456.456-.886.651-1.667.651-.769 0-1.328-.195-1.73-.599-.366-.378-.562-.924-.562-1.523 0-1.08.742-1.966 2.318-1.966h1.601v-.338c0-.743-.364-1.068-1.263-1.068-.65 0-.95.156-1.3.56l-1.083-1.054c.665-.729 1.316-.938 2.45-.938 1.9 0 2.888.807 2.888 2.395v4.466h-1.653zM30.778 13.92c-1.394 0-1.98-.977-1.98-1.94V4.65h1.693v7.225c0 .404.169.612.599.612h.65v1.432h-.962z"/>
    </g>
</svg>
