<?xml version="1.0" encoding="utf-8"?>
<!-- Generator: Adobe Illustrator 21.1.0, SVG Export Plug-In . SVG Version: 6.00 Build 0)  -->
<svg version="1.1" id="Capa_1" xmlns="http://www.w3.org/2000/svg" xmlns:xlink="http://www.w3.org/1999/xlink" x="0px" y="0px"
	 viewBox="0 0 458.7 301.6" style="enable-background:new 0 0 458.7 301.6;" xml:space="preserve">
<style type="text/css">
	.st0{fill:#FFFFFF;}
</style>
<g>
	<path class="st0" d="M300.3,152.3c-3.1,3.2-6.8,4.7-11.3,4.7c-4.3,0-8.1-1.5-11.1-4.7c-3.1-3.2-4.7-7-4.7-11.3
		c0-4.6,1.7-8.4,4.7-11.4c3.1-3.2,6.8-4.7,11.1-4.6c4.5-0.1,8.2,1.4,11.4,4.6c2.9,3.1,4.5,6.8,4.6,11.4
		C304.9,145.4,303.4,149.1,300.3,152.3 M310.5,119.5c-6-6-13.2-8.9-21.4-8.9s-15.3,2.9-21.1,8.9c-6,6-8.9,13.2-8.9,21.6
		c0,8.4,2.9,15.6,8.9,21.4c5.8,6,12.9,9.1,21.1,9.1s15.4-3.1,21.4-9.1c5.8-5.9,8.8-13.1,8.8-21.4
		C319.3,132.7,316.3,125.5,310.5,119.5"/>
	<path class="st0" d="M98.6,95.6c-10.4-0.1-19.1,3.5-26.3,11c-7.4,7.4-11,16.2-11,26.6c0,10.3,3.6,19.4,11,26.7
		c7.2,7.2,15.9,10.9,26.3,10.9c8.3,0,16-2.5,22.7-7.7c6.5-5.3,10.9-11.8,13.1-19.9h-15.2c-1.9,3.9-4.7,7.1-8.2,9.6
		c-3.9,2.4-7.9,3.6-12.4,3.6c-6.4,0-11.8-2.4-16.3-6.8c-4.6-4.6-6.8-10-6.7-16.4c-0.1-6.4,2.1-11.8,6.7-16.4
		c4.5-4.5,9.9-6.8,16.3-6.8c4.5,0,8.5,1.2,12.4,3.8c3.5,2.4,6.3,5.7,8.2,9.6h15.2c-2.2-8.1-6.5-14.8-13.1-19.9
		C114.6,98.1,107,95.5,98.6,95.6"/>
	<path class="st0" d="M196.6,143.1l2.8-1.5v5.8c0,5-1.4,8.5-4,10.4c-2.8,1.9-5.7,2.9-9,2.9c-2.1,0-3.8-0.6-5.1-1.7
		c-1.4-1.3-2.1-3.1-2.1-5.7c0-2.9,1.1-5,3.5-6.6c1.4-0.8,3.8-1.5,6.8-1.9L196.6,143.1z M190.5,110.4c-9.7-0.1-16.6,2.5-20.5,7.7
		c-2.5,3.2-3.7,7.4-4.2,12.7h14.5c0.3-2.5,1.1-4.2,2.1-5.3c1.5-2,4-2.9,7.7-2.8c3.1-0.2,5.4,0.4,7.1,1.4c1.7,0.8,2.4,2.5,2.5,4.9
		c0,1.9-1.1,3.5-3.3,4.5l-11.1,1.8c-5.1,0.7-9.3,2-12.5,3.8c-5.4,3.2-8.1,8.3-7.9,15.7c-0.1,5.1,1.5,9.3,4.9,12.4
		c2.9,2.5,7,3.9,11.8,4c7.9-0.1,14.2-2.1,18.6-6v6h14.5v-42.6c0-7-2.5-11.8-7.2-14.3C202.3,111.5,196.7,110.3,190.5,110.4"/>
	<rect x="141.8" y="95.6" class="st0" width="14.5" height="75.5"/>
	<path class="st0" d="M248.3,112.5c-3.9,1.5-7.4,4.2-10.3,8.2v-7.4l-13.8-0.1v57.9h14.3v-27.7c0-4.7,0.6-8.1,1.8-10.2
		c1-2.2,2.8-4,5-5.6c2.5-1.7,5.1-2.5,7.9-2.5l4.4,0.3l-0.1-14.8l-3.8,0.3L248.3,112.5z"/>
	<polygon class="st0" points="321.8,112.8 356.7,77.8 347.5,68.6 312.6,103.6 	"/>
	<rect x="284.3" y="61.4" class="st0" width="12.9" height="37.5"/>
	<rect x="328.2" y="127.3" class="st0" width="38.3" height="13"/>
</g>
<g>
	<path class="st0" d="M84.4,240.2v-25.7c0-5.8-3.7-7.7-7-7.7c-3.3,0-7.1,2-7.1,7.7v25.7H59.7v-42.5H70v3.9c2.8-2.9,6.7-4.4,10.6-4.4
		c4.2,0,7.7,1.4,10,3.8c3.4,3.4,4.3,7.4,4.3,12.1v27.1H84.4z"/>
	<path class="st0" d="M114.7,222.3c0,5.5,3.3,9.5,9.3,9.5c4.6,0,6.9-1.3,9.6-4l6.4,6.3c-4.3,4.3-8.5,6.7-16.1,6.7
		c-10,0-19.6-4.6-19.6-21.8c0-13.9,7.5-21.7,18.5-21.7c11.8,0,18.5,8.6,18.5,20.3v4.7H114.7z M129.9,210.5c-1.1-2.5-3.5-4.4-7.1-4.4
		c-3.6,0-6,1.9-7.1,4.4c-0.7,1.5-0.9,2.7-1,4.6h16.1C130.8,213.2,130.5,212,129.9,210.5z"/>
	<path class="st0" d="M164.4,240.2c-8.6,0-12.3-6.1-12.3-12.1v-21h-4.5V199h4.5v-12.6h10.6V199h7.5v8.1h-7.5v20.4
		c0,2.4,1.1,3.8,3.7,3.8h3.8v9H164.4z"/>
	<path class="st0" d="M222.4,240.2h-8.7l-8.9-26.7l-8.9,26.7h-8.7l-13-42.5h11.3l6.8,26.3l8.6-26.3h7.7l8.7,26.3l6.8-26.3h11.2
		L222.4,240.2z"/>
	<path class="st0" d="M270.3,235.5c-2.6,2.8-6.9,5.2-13.2,5.2c-6.3,0-10.5-2.4-13.1-5.2c-3.8-4-4.8-8.8-4.8-16.5
		c0-7.7,1-12.5,4.8-16.5c2.6-2.8,6.8-5.2,13.1-5.2c6.3,0,10.6,2.4,13.2,5.2c3.8,4,4.8,8.8,4.8,16.5
		C275.2,226.7,274.2,231.5,270.3,235.5z M262.1,208.7c-1.2-1.2-2.9-1.9-5-1.9c-2.1,0-3.7,0.7-4.9,1.9c-2.2,2.2-2.4,5.9-2.4,10.3
		s0.2,8.2,2.4,10.4c1.2,1.2,2.8,1.9,4.9,1.9c2.1,0,3.8-0.7,5-1.9c2.2-2.2,2.4-6,2.4-10.4S264.3,210.9,262.1,208.7z"/>
	<path class="st0" d="M308.3,209.3c-1.6-1.6-3-2.5-5.6-2.5c-3.3,0-6.8,2.4-6.8,7.8v25.6h-10.6v-42.5h10.4v4.1
		c2-2.4,6.1-4.6,10.7-4.6c4.2,0,7.1,1.1,10,4L308.3,209.3z"/>
	<path class="st0" d="M347.9,240.2l-10.4-17.7l-4.5,5.1v12.6h-10.6v-58H333v32.9l14.1-17.4h12.8l-15.2,17.1l16.3,25.4H347.9z"/>
	<path class="st0" d="M381.9,240.7c-6.7,0-12.7-0.7-18.1-6.1l6.9-6.9c3.5,3.5,8.1,4,11.3,4c3.7,0,7.5-1.2,7.5-4.4
		c0-2.1-1.1-3.6-4.5-3.9l-6.7-0.7c-7.7-0.7-12.4-4.1-12.4-11.9c0-8.8,7.7-13.5,16.4-13.5c6.6,0,12.1,1.1,16.2,5l-6.5,6.6
		c-2.4-2.2-6.2-2.9-9.9-2.9c-4.2,0-6,2-6,4.1c0,1.5,0.7,3.3,4.4,3.7l6.7,0.7c8.4,0.8,12.6,5.3,12.6,12.5
		C399.9,236.2,391.9,240.7,381.9,240.7z"/>
</g>
</svg>
