<?xml version="1.0" encoding="utf-8"?>
<!-- Generator: Adobe Illustrator 21.0.0, SVG Export Plug-In . SVG Version: 6.00 Build 0)  -->
<svg version="1.1" id="Capa_1" xmlns="http://www.w3.org/2000/svg" xmlns:xlink="http://www.w3.org/1999/xlink" x="0px" y="0px"
	 viewBox="0 0 71.5 71.6" style="enable-background:new 0 0 71.5 71.6;" xml:space="preserve">
<style type="text/css">
	.st0{fill:#0097A9;}
	.st1{fill:#FFFFFF;}
</style>
<title>Flechita atrás</title>
<g id="Layer_10">
	<circle class="st0" cx="35.8" cy="36" r="35.4"/>
</g>
<g>
	<path class="st1" d="M50.8,41.8H30.6c-2.9,0-5.2-2.4-5.2-5.2v0c0-2.9,2.4-5.2,5.2-5.2h20.3c2.9,0,5.2,2.4,5.2,5.2v0
		C56.1,39.4,53.7,41.8,50.8,41.8z"/>
	<path class="st1" d="M35,29.8L24.6,40.2c-1.9,1.9-5,1.9-7,0l0,0c-1.9-1.9-1.9-5,0-7L28,22.8c1.9-1.9,5-1.9,7,0l0,0
		C36.9,24.8,36.9,27.9,35,29.8z"/>
	<path class="st1" d="M28,50.9L17.6,40.5c-1.9-1.9-1.9-5,0-7l0,0c1.9-1.9,5-1.9,7,0L35,43.9c1.9,1.9,1.9,5,0,7l0,0
		C33.1,52.8,30,52.8,28,50.9z"/>
</g>
</svg>
