<?xml version="1.0" encoding="UTF-8"?>
<svg width="25px" height="23px" viewBox="0 0 25 23" version="1.1" xmlns="http://www.w3.org/2000/svg" xmlns:xlink="http://www.w3.org/1999/xlink">
    <!-- Generator: Sketch 61.2 (89653) - https://sketch.com -->
    <title>Fill 1 Copy 6</title>
    <desc>Created with Sketch.</desc>
    <g id="Región" stroke="none" stroke-width="1" fill="none" fill-rule="evenodd">
        <g id="Canal_Claro-1920" transform="translate(-799.000000, -2446.000000)" fill="#FFFFFF">
            <path d="M822.016748,2448.25085 C820.722607,2446.79939 818.946875,2446 817.01626,2446 C815.573145,2446 814.251562,2446.4718 813.088086,2447.40212 C812.500977,2447.87175 811.969043,2448.4463 811.5,2449.11689 C811.031201,2448.4465 810.499023,2447.87175 809.911768,2447.40212 C808.748486,2446.4718 807.426855,2446 805.983789,2446 C804.053125,2446 802.277197,2446.79939 800.983057,2448.25085 C799.704395,2449.68533 799,2451.64509 799,2453.7693 C799,2455.95567 799.787939,2457.95698 801.479541,2460.06781 C802.992871,2461.95597 805.167822,2463.87271 807.686475,2466.0922 C808.546484,2466.85014 809.326025,2467.35587 810.338232,2468.27104 C810.605664,2468.51325 811.144092,2469 811.5,2469 C811.855713,2469 812.394385,2468.51325 812.661377,2468.27145 C813.673633,2467.35607 814.453711,2466.84994 815.314111,2466.09159 C817.832422,2463.87251 820.007373,2461.95597 821.520654,2460.06761 C823.212256,2457.95698 824,2455.95567 824,2453.7691 C824,2451.64509 823.295605,2449.68533 822.016748,2448.25085" id="Fill-1-Copy-6"></path>
        </g>
    </g>
</svg>