<?xml version="1.0" encoding="UTF-8"?>
<svg width="29px" height="26px" viewBox="0 0 29 26" version="1.1" xmlns="http://www.w3.org/2000/svg" xmlns:xlink="http://www.w3.org/1999/xlink">
    <!-- Generator: Sketch 61.2 (89653) - https://sketch.com -->
    <title>Fill 1 Copy 2</title>
    <desc>Created with Sketch.</desc>
    <g id="Región" stroke="none" stroke-width="1" fill="none" fill-rule="evenodd">
        <g id="Claro_Cinema_1024-Copy-9" transform="translate(-474.000000, -987.000000)" stroke="#F7C114" stroke-width="2">
            <path d="M499.858088,990.348709 C498.460416,988.83415 496.542625,988 494.457561,988 C492.898996,988 491.471688,988.492313 490.215133,989.463082 C489.581055,989.95313 489.006566,990.552662 488.5,991.252407 C487.993697,990.552873 487.418945,989.95313 486.784709,989.463082 C485.528365,988.492313 484.101004,988 482.542492,988 C480.457375,988 478.539373,988.83415 477.141701,990.348709 C475.760746,991.845564 475,993.890528 475,996.107096 C475,998.388523 475.850975,1000.47685 477.677904,1002.67946 C479.312301,1004.64971 481.661248,1006.64978 484.381393,1008.96577 C485.310203,1009.75667 486.152107,1010.28439 487.245291,1011.23935 C487.534117,1011.49209 488.115619,1012 488.5,1012 C488.88417,1012 489.465936,1011.49209 489.754287,1011.23977 C490.847523,1010.2846 491.690008,1009.75646 492.61924,1008.96514 C495.339016,1006.64957 497.687963,1004.64971 499.322307,1002.67924 C501.149236,1000.47685 502,998.388523 502,996.106886 C502,993.890528 501.239254,991.845564 499.858088,990.348709" id="Fill-1-Copy-2"></path>
        </g>
    </g>
</svg>