<?xml version="1.0" encoding="UTF-8"?>
<svg xmlns="http://www.w3.org/2000/svg" xmlns:xlink="http://www.w3.org/1999/xlink" width="25pt" height="23pt" viewBox="0 0 25 23" version="1.1">
<g id="surface1">
<path style=" stroke:none;fill-rule:nonzero;fill:rgb(100%,100%,100%);fill-opacity:1;" d="M 23 2.300781 C 21.601562 0.800781 19.800781 0 17.800781 0 C 16.300781 0 14.898438 0.5 13.699219 1.398438 C 13.300781 1.800781 12.800781 2.199219 12.5 2.601562 C 12.101562 2.101562 11.699219 1.699219 11.300781 1.398438 C 10.101562 0.5 8.699219 0 7.199219 0 C 5.199219 0 3.398438 0.800781 2 2.300781 C 0.699219 3.800781 0 5.800781 0 7.898438 C 0 10.101562 0.800781 12.101562 2.5 14.199219 C 4 16 6.101562 17.898438 8.5 20 C 8.898438 20.300781 9.199219 20.601562 9.601562 20.898438 C 10 21.199219 10.5 21.601562 11 22.101562 C 11.398438 22.5 12 22.898438 12.398438 22.898438 C 12.898438 22.898438 13.398438 22.5 13.800781 22.101562 C 14.300781 21.601562 14.800781 21.300781 15.199219 20.898438 C 15.601562 20.601562 15.898438 20.300781 16.300781 20 C 18.699219 17.898438 20.800781 16 22.300781 14.199219 C 24 12.101562 24.800781 10.101562 24.800781 7.898438 C 25 5.800781 24.300781 3.800781 23 2.300781 Z M 21.800781 13.699219 C 20.398438 15.5 18.300781 17.300781 15.898438 19.398438 C 15.5 19.699219 15.199219 20 14.800781 20.300781 C 14.300781 20.699219 13.898438 21 13.300781 21.5 C 12.800781 22 12.601562 22.101562 12.5 22.101562 C 12.398438 22.101562 12.199219 22 11.699219 21.5 C 11.199219 21 10.699219 20.601562 10.199219 20.300781 C 9.800781 20 9.5 19.699219 9.101562 19.398438 C 6.699219 17.300781 4.601562 15.5 3.199219 13.699219 C 1.699219 11.699219 1 9.898438 1 7.898438 C 1 6 1.601562 4.199219 2.699219 3 C 3.898438 1.699219 5.398438 1 7.101562 1 C 8.398438 1 9.5 1.398438 10.601562 2.199219 C 11.101562 2.601562 11.601562 3.101562 12 3.699219 L 12.398438 4.300781 L 12.800781 3.699219 C 13.199219 3.101562 13.699219 2.601562 14.199219 2.199219 C 15.199219 1.398438 16.398438 1 17.699219 1 C 19.398438 1 21 1.699219 22.101562 3 C 23.398438 4.199219 24 6 24 7.898438 C 24 9.898438 23.300781 11.699219 21.800781 13.699219 Z M 21.800781 13.699219 "/>
</g>
</svg>
