<?xml version="1.0" encoding="UTF-8"?>
<svg width="27px" height="24px" viewBox="0 0 27 24" version="1.1" xmlns="http://www.w3.org/2000/svg" xmlns:xlink="http://www.w3.org/1999/xlink">
    <!-- Generator: Sketch 61.2 (89653) - https://sketch.com -->
    <title>Fill 1</title>
    <desc>Created with Sketch.</desc>
    <g id="Región" stroke="none" stroke-width="1" fill="none" fill-rule="evenodd">
        <g id="Claro_Cinema_1024-Copy-9" transform="translate(-934.000000, -988.000000)" fill="#F7C114">
            <path d="M958.858088,990.348709 C957.460416,988.83415 955.542625,988 953.457561,988 C951.898996,988 950.471688,988.492313 949.215133,989.463082 C948.581055,989.95313 948.006566,990.552662 947.5,991.252407 C946.993697,990.552873 946.418945,989.95313 945.784709,989.463082 C944.528365,988.492313 943.101004,988 941.542492,988 C939.457375,988 937.539373,988.83415 936.141701,990.348709 C934.760746,991.845564 934,993.890528 934,996.107096 C934,998.388523 934.850975,1000.47685 936.677904,1002.67946 C938.312301,1004.64971 940.661248,1006.64978 943.381393,1008.96577 C944.310203,1009.75667 945.152107,1010.28439 946.245291,1011.23935 C946.534117,1011.49209 947.115619,1012 947.5,1012 C947.88417,1012 948.465936,1011.49209 948.754287,1011.23977 C949.847523,1010.2846 950.690008,1009.75646 951.61924,1008.96514 C954.339016,1006.64957 956.687963,1004.64971 958.322307,1002.67924 C960.149236,1000.47685 961,998.388523 961,996.106886 C961,993.890528 960.239254,991.845564 958.858088,990.348709" id="Fill-1"></path>
        </g>
    </g>
</svg>