<svg xmlns="http://www.w3.org/2000/svg" width="53" height="32" viewBox="0 0 53 32">
    <g fill="#FFF" fill-rule="nonzero">
        <path d="M21.374 12.932c-.956 0-4.649.92-2.954 5.04 0 0 .869 1.491 3.388 1.053 0 0 1.173-.044 2.129-.877s.087-.044.087-.044v1.008h2.52l-.087-8.022s.13-2.323-4.04-2.323c-4.215 0-4.345 3.332-4.215 3.463h2.564s.043-1.841 2.259-1.359c0 0 1.042 0 .999 1.008-.087 1.053-1.694 1.053-2.65 1.053zm2.563 2.016c0 .789-.26 2.323-2.129 2.455-1.868.131-1.738-2.455-.26-2.63 1.477-.176 2.345-.702 2.345-.702s.044.088.044.877zM52.088 18.63v-2.542h-1.043l-.39 1.534-.392-1.534h-1v2.542h.653v-1.929l.477 1.93h.565l.478-1.93v1.93zM4.214 25.688c-1 0-1.694.394-2.085 1.14v-1.053H.39v6.137h1.738v-3.024c0-.439.13-.833.39-1.14.261-.307.609-.438 1-.438.347 0 .651.131.869.35.217.22.304.526.304.92v3.332H6.43v-3.857c0-.702-.218-1.271-.609-1.71-.39-.438-.912-.657-1.607-.657zM46.484 11.134h6.299v2.455h-6.299zM38.968.351h2.433v6.356h-2.433zM30.67 14.027c0-2.98 2.911-2.674 3.172-2.498V8.81c-2.39.088-3.172 1.49-3.172 1.49V9.25h-2.52v9.776h2.52v-4.998zM48.134 18.63v-1.885h.782v-.657H46.57v.657h.782v1.885zM43.523 7.548l6.05-6.107 1.629 1.642L45.15 9.19zM12.946 14.378h-2.694c-.651 1.359-1.998 2.28-3.562 2.28-2.172 0-3.953-1.798-3.953-3.99 0-2.191 1.781-3.989 3.953-3.989 1.608 0 2.998.965 3.606 2.368h2.65c-.739-2.806-3.258-4.91-6.256-4.91-3.606 0-6.473 2.937-6.473 6.531 0 3.595 2.91 6.532 6.473 6.532a6.45 6.45 0 0 0 6.256-4.822zM47.526 25.775h-1.955L43.356 28.1v-4.647h-1.738v8.416h1.738v-1.621l.738-.833 1.477 2.454h2.086l-2.346-3.726zM44.398 13.808c0-2.85-2.302-5.129-5.082-5.129-2.824 0-5.083 2.324-5.083 5.13 0 2.805 2.259 5.172 5.083 5.172 2.823 0 5.082-2.323 5.082-5.173zm-7.82 0a2.738 2.738 0 0 1 2.738-2.761 2.738 2.738 0 0 1 2.736 2.761 2.738 2.738 0 0 1-2.736 2.762c-1.52.044-2.737-1.228-2.737-2.762zM38.577 26.871v-1.096h-1.738v6.137h1.738v-2.98c0-.483.174-.877.478-1.184.304-.307.738-.438 1.26-.438h.26v-1.666c-.434 0-.825.131-1.173.307-.347.263-.608.526-.825.92zM52.566 29.063a1.875 1.875 0 0 0-.739-.57c-.26-.131-.652-.263-1.043-.394-.39-.132-.651-.22-.825-.307-.174-.088-.26-.22-.26-.395a.4.4 0 0 1 .173-.35c.13-.088.304-.132.521-.132.261 0 .565.044.87.175.303.088.65.263.998.439l.609-1.184a4.474 4.474 0 0 0-1.13-.526 4.164 4.164 0 0 0-1.26-.175c-.695 0-1.26.175-1.694.482-.434.35-.695.79-.695 1.403 0 .394.087.701.304.964s.435.439.695.57c.26.132.608.263 1.043.35.39.132.695.22.869.308.173.087.26.219.26.394 0 .175-.087.263-.217.35-.13.088-.304.132-.565.132-.347 0-.695-.087-1.086-.219a3.025 3.025 0 0 1-1.042-.57l-.565 1.184c.347.263.738.482 1.216.613.478.132.956.22 1.434.22.738 0 1.303-.176 1.781-.526.478-.351.695-.79.695-1.403a2.276 2.276 0 0 0-.347-.833zM26.109 30.159l-1.347-4.384h-1.694l-1.347 4.384-1.346-4.384h-1.738l2.215 6.093h1.738l1.303-4.032 1.304 4.032h1.737l2.216-6.093h-1.738zM17.247 30.466c-.348 0-.565-.22-.565-.702v-2.542h1.65v-1.227h-1.65v-1.666h-1.738v1.666h-.825v1.227h.825v2.85c0 .613.174 1.095.522 1.402.347.307.825.482 1.39.482.26 0 .564-.044.825-.088.26-.087.521-.175.739-.306l-.348-1.315c-.304.175-.608.219-.825.219zM14.075 6.181h2.476v12.844h-2.476zM10.557 25.688c-.609 0-1.173.131-1.608.394a2.63 2.63 0 0 0-1.086 1.096c-.26.482-.39 1.008-.39 1.666 0 .614.13 1.14.39 1.622.26.482.608.833 1.086 1.096.478.263 1.043.394 1.694.394.522 0 1.043-.088 1.477-.263a2.939 2.939 0 0 0 1.13-.789l-.912-.92c-.218.219-.435.394-.695.482-.261.131-.522.175-.826.175-.39 0-.738-.088-.999-.307a1.664 1.664 0 0 1-.565-.92h4.345v-.439c0-1.008-.261-1.797-.782-2.367-.565-.613-1.304-.92-2.26-.92zm-1.434 2.63c.087-.395.217-.745.478-.965.26-.219.565-.35.956-.35.39 0 .738.131.955.35.261.263.348.57.391.965h-2.78zM34.146 26.082c-.478-.263-1.043-.394-1.694-.394-.652 0-1.217.131-1.695.394-.477.263-.868.614-1.13 1.096a3.315 3.315 0 0 0-.39 1.622c0 .614.13 1.14.39 1.622.262.482.653.833 1.13 1.096.478.263 1.043.394 1.695.394.651 0 1.216-.131 1.694-.394s.869-.614 1.13-1.096c.26-.482.39-1.008.39-1.622 0-.614-.13-1.184-.39-1.622a3.03 3.03 0 0 0-1.13-1.096zm-.608 3.99c-.261.306-.652.481-1.086.481-.435 0-.826-.175-1.086-.482a1.824 1.824 0 0 1-.435-1.227c0-.526.13-.92.435-1.228.26-.306.651-.482 1.086-.482.434 0 .825.176 1.086.482.26.307.434.702.434 1.228s-.174.92-.434 1.227z"/>
    </g>
</svg>
