<svg xmlns="http://www.w3.org/2000/svg" xmlns:xlink="http://www.w3.org/1999/xlink" width="35" height="35" viewBox="0 0 35 35">
    <defs>
        <path id="a" d="M0 .066h34.935V35H0z"/>
    </defs>
    <g fill="none" fill-rule="evenodd">
        <g>
            <mask id="b" fill="#fff">
                <use xlink:href="#a"/>
            </mask>
            <path fill="#FFF" d="M17.467 33.056c-8.56 0-15.523-6.964-15.523-15.523 0-8.56 6.963-15.522 15.523-15.522 8.559 0 15.524 6.963 15.524 15.522 0 8.559-6.965 15.523-15.524 15.523m0-32.99C7.837.066 0 7.901 0 17.533 0 27.163 7.836 35 17.467 35s17.468-7.836 17.468-17.467c0-9.632-7.837-17.467-17.468-17.467" mask="url(#b)"/>
        </g>
        <path fill="#FFF" d="M17.5 17a4.5 4.5 0 1 0 0-9 4.5 4.5 0 0 0 0 9M17.5 18c-4.142 0-7.5 3.382-7.5 7.554 0 .149.014.444.014.444L24.986 26c.01-.148.014-.296.014-.446C25 21.382 21.642 18 17.5 18"/>
    </g>
</svg>
