<svg xmlns="http://www.w3.org/2000/svg" width="22" height="23" viewBox="0 0 22 23">
    <g fill="none" fill-rule="evenodd">
        <path stroke="#000" stroke-width="1.5" d="M7 7.931V2.945C7 1.87 7.896 1 9 1h10c1.106 0 2 .87 2 1.945v17.11C21 21.13 20.106 22 19 22H9c-1.104 0-2-.87-2-1.945v-5.186"/>
        <path fill="#000" d="M.696 10.86a.348.348 0 0 0 0 .479c.846.854 1.8 1.787 2.638 2.655.625.647 1.42-.19.846-.765-.849-.848-1.138-1.224-1.983-2.079l-.145-.092c.158-.202.4-.21.525-.36.575-.689.97-.96 1.697-1.76.521-.575-.238-1.354-.847-.838L.696 10.86z"/>
        <path fill="#000" d="M17.497 10.5H1.504c-.671 0-.673 1.35 0 1.35h15.993c.67 0 .672-1.35 0-1.35"/>
    </g>
</svg>
