<svg xmlns="http://www.w3.org/2000/svg" xmlns:xlink="http://www.w3.org/1999/xlink" width="31" height="32" viewBox="0 0 31 32">
    <defs>
        <path id="a" d="M0 .34h30.86V31.2H0z"/>
        <path id="c" d="M0 0h19.344v15.874H0z"/>
    </defs>
    <g fill="none" fill-rule="evenodd">
        <g>
            <mask id="b" fill="#fff">
                <use xlink:href="#a"/>
            </mask>
            <path fill="#FFF" d="M15.43 1.939c-7.625 0-13.83 6.204-13.83 13.83 0 7.627 6.205 13.83 13.83 13.83 7.626 0 13.83-6.203 13.83-13.83 0-7.626-6.204-13.83-13.83-13.83m0 29.26C6.922 31.2 0 24.28 0 15.77 0 7.261 6.922.34 15.43.34c8.51 0 15.43 6.922 15.43 15.43 0 8.51-6.92 15.43-15.43 15.43" mask="url(#b)"/>
        </g>
        <g transform="translate(6 7)">
            <mask id="d" fill="#fff">
                <use xlink:href="#c"/>
            </mask>
            <path fill="#FFF" d="M19.145 8.028L10.163.204A.691.691 0 0 0 9.185.2l-.004.004L.2 8.028a.69.69 0 0 0-.145.754.69.69 0 0 0 .636.428h1.382v5.973c0 .381.309.691.69.691h4.18c.38 0 .69-.31.69-.691V10c0-.191.155-.346.346-.346h3.381c.19 0 .346.155.346.346v5.182c0 .381.31.691.69.691h4.187c.381 0 .69-.31.69-.691V9.21h1.382a.69.69 0 0 0 .636-.428.69.69 0 0 0-.145-.754" mask="url(#d)"/>
        </g>
    </g>
</svg>
