<svg xmlns="http://www.w3.org/2000/svg" width="52" height="31" viewBox="0 0 52 31">
    <g fill="#FFF" fill-rule="nonzero">
        <path d="M20.97 12.527c-.937 0-4.56.892-2.898 4.884 0 0 .853 1.444 3.325 1.02 0 0 1.15-.043 2.088-.85.938-.807.085-.043.085-.043v.977h2.473l-.086-7.771s.128-2.25-3.964-2.25c-4.134 0-4.262 3.227-4.134 3.354h2.515s.042-1.784 2.216-1.316c0 0 1.023 0 .98.976-.085 1.02-1.662 1.02-2.6 1.02zm2.515 1.954c0 .764-.255 2.25-2.088 2.378-1.833.127-1.705-2.378-.256-2.548 1.45-.17 2.302-.68 2.302-.68s.042.085.042.85zM51.105 18.048v-2.463h-1.023l-.384 1.486-.383-1.486h-.98v2.463h.639v-1.869l.469 1.869h.554l.469-1.869v1.869zM4.134 24.885c-.98 0-1.662.382-2.045 1.104v-1.02H.384v5.946h1.705v-2.93c0-.425.127-.807.383-1.104.256-.297.597-.425.98-.425.341 0 .64.128.853.34.213.212.298.51.298.892v3.227h1.705v-3.737c0-.68-.213-1.231-.597-1.656-.383-.425-.895-.637-1.577-.637zM45.607 10.786h6.18v2.378h-6.18zM38.233.34h2.387v6.158h-2.387zM30.092 13.589c0-2.888 2.856-2.59 3.111-2.42V8.535c-2.344.085-3.111 1.443-3.111 1.443V8.96H27.62v9.47h2.472V13.59zM47.226 18.048v-1.826h.767v-.637h-2.301v.637h.767v1.826zM42.702 7.312l5.936-5.916 1.598 1.591-5.937 5.916zM12.702 13.929h-2.643c-.64 1.316-1.96 2.208-3.495 2.208-2.131 0-3.879-1.741-3.879-3.864 0-2.124 1.748-3.865 3.879-3.865 1.577 0 2.94.934 3.538 2.293h2.6c-.725-2.717-3.197-4.756-6.138-4.756a6.328 6.328 0 0 0-6.35 6.328c0 3.482 2.855 6.327 6.35 6.327 2.94 0 5.413-1.953 6.138-4.671zM46.63 24.97H44.71l-2.173 2.25v-4.5h-1.705v8.153h1.705V29.3l.724-.806 1.45 2.378h2.045l-2.301-3.61zM43.56 13.377c0-2.76-2.258-4.969-4.986-4.969-2.77 0-4.987 2.25-4.987 4.969 0 2.718 2.216 5.01 4.987 5.01 2.77 0 4.987-2.25 4.987-5.01zm-7.671 0a2.67 2.67 0 0 1 2.685-2.676 2.67 2.67 0 0 1 2.685 2.676 2.67 2.67 0 0 1-2.685 2.675c-1.492.043-2.685-1.189-2.685-2.675zM37.85 26.032V24.97h-1.706v5.945h1.705v-2.888c0-.467.17-.849.469-1.146.298-.297.725-.425 1.236-.425h.256v-1.614c-.426 0-.81.128-1.151.298-.341.255-.597.51-.81.892zM51.574 28.155a1.836 1.836 0 0 0-.725-.552c-.256-.128-.64-.255-1.023-.382-.383-.128-.64-.213-.81-.298-.17-.085-.255-.212-.255-.382 0-.127.042-.255.17-.34.128-.085.299-.127.512-.127.255 0 .554.042.852.17.298.085.64.255.98.424l.597-1.146a4.416 4.416 0 0 0-1.108-.51 4.135 4.135 0 0 0-1.236-.17c-.682 0-1.236.17-1.662.468-.427.34-.682.764-.682 1.358 0 .383.085.68.298.935.213.255.426.424.682.552.256.127.597.255 1.023.34.383.127.682.212.852.297.17.085.256.212.256.382s-.085.255-.213.34c-.128.085-.298.127-.554.127-.341 0-.682-.085-1.066-.212a2.98 2.98 0 0 1-1.023-.552l-.554 1.146c.341.255.725.467 1.194.595.469.127.937.212 1.406.212.725 0 1.279-.17 1.748-.51.469-.34.682-.764.682-1.358a2.19 2.19 0 0 0-.341-.807zM25.616 29.216l-1.32-4.246h-1.663l-1.322 4.246-1.32-4.246h-1.706l2.174 5.903h1.705l1.279-3.907 1.278 3.907h1.705L28.6 24.97h-1.705zM16.921 29.514c-.34 0-.554-.213-.554-.68v-2.463h1.62v-1.189h-1.62v-1.614h-1.705v1.614h-.81v1.19h.81v2.76c0 .594.17 1.061.512 1.358.34.298.81.468 1.364.468.255 0 .554-.043.81-.085.255-.085.511-.17.724-.298l-.34-1.274c-.3.17-.598.213-.81.213zM13.81 5.988h2.43V18.43h-2.43zM10.357 24.885c-.596 0-1.15.127-1.577.382-.469.255-.81.595-1.065 1.062-.256.467-.384.976-.384 1.613 0 .595.128 1.105.384 1.572.255.467.596.807 1.065 1.061.47.255 1.023.383 1.663.383.511 0 1.023-.085 1.449-.255.426-.17.81-.425 1.108-.765l-.895-.891c-.213.212-.426.382-.682.467-.256.127-.512.17-.81.17-.383 0-.724-.085-.98-.298a1.609 1.609 0 0 1-.554-.891h4.262v-.425c0-.977-.256-1.741-.767-2.293-.554-.595-1.279-.892-2.217-.892zm-1.406 2.548c.085-.382.213-.722.469-.934.255-.213.554-.34.937-.34.384 0 .725.127.938.34.256.254.341.552.384.934H8.95zM33.502 25.267c-.47-.255-1.023-.382-1.663-.382-.639 0-1.193.127-1.662.382-.469.255-.852.595-1.108 1.062a3.179 3.179 0 0 0-.384 1.571c0 .595.128 1.104.384 1.571.256.467.64.807 1.108 1.062.469.255 1.023.382 1.662.382.64 0 1.194-.127 1.663-.382.468-.255.852-.595 1.108-1.062.256-.467.383-.976.383-1.571s-.127-1.147-.383-1.571a2.956 2.956 0 0 0-1.108-1.062zm-.597 3.865c-.256.297-.64.467-1.066.467-.426 0-.81-.17-1.065-.467a1.754 1.754 0 0 1-.426-1.19c0-.51.127-.891.426-1.189.256-.297.64-.467 1.065-.467.427 0 .81.17 1.066.467.256.298.426.68.426 1.19 0 .51-.17.891-.426 1.189z"/>
    </g>
</svg>
