<svg xmlns="http://www.w3.org/2000/svg" width="37" height="37" viewBox="0 0 37 37">
    <g fill="none" fill-rule="evenodd">
        <path fill="#BA32F9" d="M13.223 23.863a1.456 1.456 0 0 1 0-2.06l8.91-8.909a1.455 1.455 0 1 1 2.058 2.06l-8.908 8.91a1.456 1.456 0 0 1-2.06 0"/>
        <path fill="#BA32F9" d="M13.223 12.895a1.456 1.456 0 0 1 2.06 0l8.908 8.909a1.456 1.456 0 0 1-2.059 2.06l-8.909-8.91a1.456 1.456 0 0 1 0-2.06"/>
        <path stroke="#BA32F9" stroke-width="2" d="M36.01 18.505c0 9.667-7.837 17.505-17.505 17.505C8.838 36.01 1 28.172 1 18.505 1 8.837 8.838 1 18.505 1 28.173 1 36.01 8.837 36.01 18.505z"/>
    </g>
</svg>
