<svg xmlns="http://www.w3.org/2000/svg" width="1315" height="537" viewBox="0 0 1315 537">
    <g fill="none" fill-rule="evenodd" transform="translate(4 4)">
        <path fill="#F7F7F7" stroke="#D5D7D7" stroke-dasharray="9" stroke-width="7" d="M2.356 0H1307v529H0L2.356 0z"/>
        <ellipse cx="76.975" cy="70.743" fill="#D8D8D8" rx="60.48" ry="60.525"/>
        <path fill="#D8D8D8" stroke="#D8D8D8" stroke-width="6" d="M4.782 527.122C130.183 371.77 214.938 276.402 259.048 241.02c16.017-12.848 37.005-11.614 56.172 0 26.216 15.886 214.233 150.914 250.624 163.558 6.1 2.119 19.18-.91 30.836-8.719 33.027-22.13 299.64-238.025 349.563-271.162 20.422-13.555 49.493-11.74 60.713-8.417 41.924 12.421 141.13 82.184 297.62 209.288v201.554l-395.533 1.805-362.861-1.805H4.782z"/>
        <rect width="204" height="65" x="551" y="431" fill="#FFF" opacity=".697" rx="18"/>
    </g>
</svg>
