<svg xmlns="http://www.w3.org/2000/svg" width="25" height="22" viewBox="0 0 25 22">
    <path fill="none" fill-rule="evenodd" stroke="#FFF" stroke-width="1.5" d="M22.175 2.957C20.985 1.695 19.351 1 17.575 1c-1.328 0-2.544.41-3.614 1.22-.54.408-1.03.907-1.461 1.49-.431-.583-.92-1.082-1.461-1.49C9.969 1.41 8.753 1 7.425 1c-1.776 0-3.41.695-4.6 1.957C1.647 4.205 1 5.91 1 7.756c0 1.901.725 3.641 2.281 5.477 1.392 1.642 3.393 3.308 5.71 5.238.792.66 1.509 1.1 2.44 1.895.246.21.742.634 1.069.634.327 0 .823-.423 1.068-.634.932-.796 1.65-1.236 2.441-1.895 2.317-1.93 4.318-3.596 5.71-5.238C23.275 11.397 24 9.657 24 7.756c0-1.847-.648-3.551-1.825-4.799"/>
</svg>
