<svg xmlns="http://www.w3.org/2000/svg" xmlns:xlink="http://www.w3.org/1999/xlink" width="98" height="53" viewBox="0 0 98 53">
    <defs>
        <path id="oo58o9ehca" d="M0 66.812L99.022 66.812 99.022 0 0 0z"/>
    </defs>
    <g fill="none" fill-rule="evenodd">
        <g>
            <g transform="translate(-34 -8) translate(33 8)">
                <path fill="#DA291C" d="M13.225 29.827c-4.036 0-7.31-3.274-7.31-7.314s3.274-7.315 7.31-7.315c2.961 0 5.505 1.766 6.654 4.299h4.932c-1.34-5.16-6.011-8.976-11.586-8.976-6.618 0-11.981 5.37-11.981 11.992 0 6.623 5.363 11.993 11.981 11.993 5.522 0 10.159-3.744 11.548-8.83h-4.965c-1.18 2.455-3.68 4.151-6.583 4.151M73.43 29.732c-2.804 0-5.08-2.277-5.08-5.085s2.276-5.086 5.08-5.086c2.807 0 5.081 2.278 5.081 5.086 0 2.808-2.274 5.085-5.08 5.085m0-14.503c-5.197 0-9.409 4.217-9.409 9.418 0 5.2 4.212 9.417 9.409 9.417 5.197 0 9.408-4.216 9.408-9.417 0-5.2-4.211-9.418-9.408-9.418M41.135 31.17c-3.43.245-3.185-4.488-.49-4.831 2.695-.344 4.362-1.3 4.362-1.3s.05.245.05 1.668c0 1.422-.491 4.217-3.922 4.463m4.068 1.373v1.815h4.63l-.17-14.714s.245-4.268-7.5-4.268c-7.742 0-8.01 6.107-7.791 6.329h4.754s.048-3.385 4.165-2.453c0 0 1.913 0 1.814 1.864-.098 1.862-3.04 1.862-4.803 1.862-1.764 0-8.576 1.718-5.489 9.27 0 0 1.569 2.7 6.273 1.963 0 0 2.205-.098 3.97-1.619 1.764-1.52.147-.049.147-.049M63.33 20.49c-.5-.385-5.872-.92-5.872 4.55v9.121H52.83V16.267h4.63v1.943s1.49-2.576 5.872-2.724v5.004z"/>
                <mask id="gawfaxhesb" fill="#fff">
                    <use xlink:href="#oo58o9ehca"/>
                </mask>
                <path fill="#DA291C" d="M26.825 34.162L31.431 34.162 31.431 10.618 26.825 10.618zM72.77 11.625L77.254 11.625 77.254.001 72.77.001zM86.664 24.205L98.278 24.205 98.278 19.718 86.664 19.718zM84.2 16.192L81.176 13.165 92.329 2.004 95.353 5.029zM86.81 28.812L91.161 28.812 91.161 29.957 89.7 29.957 89.7 33.447 88.271 33.447 88.271 29.957 86.81 29.957zM91.794 28.812L93.677 28.812 94.399 31.632 95.12 28.812 96.999 28.812 96.999 33.447 95.827 33.447 95.827 29.911 94.926 33.447 93.864 33.447 92.965 29.911 92.965 33.447 91.794 33.447z" mask="url(#gawfaxhesb)"/>
                <text fill="#FFF" font-family="Montserrat-SemiBold, Montserrat" font-size="20.228" font-weight="500" mask="url(#gawfaxhesb)">
                    <tspan x="0" y="51.954">net</tspan> <tspan x="34.913" y="51.954" letter-spacing="-.364">w</tspan> <tspan x="52.835" y="51.954">or</tspan> <tspan x="74.277" y="51.954" letter-spacing="-.263">k</tspan> <tspan x="86.535" y="51.954">s</tspan>
                </text>
            </g>
        </g>
    </g>
</svg>
