<svg xmlns="http://www.w3.org/2000/svg" width="26" height="21" viewBox="0 0 26 21">
    <g fill="none" fill-rule="evenodd" stroke-linejoin="round">
        <g stroke="#FFF" stroke-width="1.5">
            <path d="M1246.766 1041.164c2.893-.576 5.639.444 6.796 1.853 1.923 2.34 1.983 5.384-.22 8.41-2.135 2.935-5.71 5.808-10.723 8.617l.282-.158c-.088.12-.228.197-.387.202-.057.017-.116.023-.175.019-.187-.014-.342-.128-.417-.286l.319.195c-4.265-2.588-7.46-5.373-9.584-8.358-2.202-3.093-2.142-6.204-.22-8.597 1.158-1.44 3.904-2.482 6.797-1.894 1.828.476 3.082 1.43 3.762 2.862l.004-.058c.679-1.406 1.934-2.341 3.766-2.807z" transform="translate(-1230 -1040)"/>
        </g>
    </g>
</svg>
