<svg xmlns="http://www.w3.org/2000/svg" width="44" height="38" viewBox="0 0 44 38">
    <g fill="none" fill-rule="evenodd" stroke-linejoin="round">
        <g stroke="#797575" stroke-width="2.5">
            <path d="M324.724 142.296c2.896.798 4.928 2.36 6.095 4.687 1.2-2.266 3.253-3.794 6.158-4.582 4.927-1.045 9.604.807 11.574 3.365 3.275 4.25 3.377 9.777-.374 15.273-3.707 5.433-9.328 10.33-16.863 14.69-.076.043-.162.067-.25.067-.051 0-.1-.008-.147-.022-.087.136-.242.226-.417.226-.095 0-.188-.027-.268-.078-7.357-4.662-12.847-9.69-16.47-15.086-3.67-5.468-3.57-10.965-.366-15.193 1.93-2.545 6.506-4.387 11.328-3.347z" transform="translate(-309 -140)"/>
        </g>
    </g>
</svg>
