<svg xmlns="http://www.w3.org/2000/svg" width="74" height="42" viewBox="0 0 74 42">
    <g fill="none" fill-rule="evenodd">
        <path fill="#E1261C" d="M0 41.636h73.986V0H0z"/>
        <g fill="#FFF">
            <path d="M59.106 22.113h3.446v-1.167h-3.446v1.167zm-3.947-3.726h1.165V15.01H55.16v3.377zm3.371 1.254l3.145-3.15-.827-.827-3.145 3.149.827.828zm-6.617-.025a2.09 2.09 0 0 0-.927.74v-.665l-1.24-.012v5.22h1.29v-2.497c0-.427.051-.727.164-.917.086-.2.25-.363.451-.501.226-.151.462-.226.714-.226l.4.025-.012-1.331-.337.026-.503.138zm-9.597 5.283h1.303v-6.802h-1.303V24.9zm4.385-5.472c-.877-.012-1.491.226-1.842.691-.225.288-.337.666-.375 1.142h1.303a.838.838 0 0 1 .188-.476c.137-.177.362-.266.69-.252.275-.014.488.038.638.125.149.075.213.227.224.44 0 .175-.1.314-.3.401l-1.002.162c-.463.064-.839.176-1.128.34-.488.289-.726.752-.713 1.419-.013.463.138.84.438 1.116.263.226.626.35 1.065.364.714-.013 1.278-.19 1.679-.54v.54h1.304v-3.84c0-.628-.228-1.066-.653-1.293a3.036 3.036 0 0 0-1.516-.339zm.552 2.948l.25-.136v.526c0 .45-.126.766-.363.94-.25.177-.514.264-.815.264a.713.713 0 0 1-.463-.15c-.125-.114-.188-.276-.188-.514 0-.263.1-.452.313-.59.125-.075.338-.138.614-.176l.652-.164zm-8.822-4.278c-.939-.012-1.716.314-2.368.991a3.256 3.256 0 0 0-.99 2.397c0 .928.326 1.745.99 2.41.652.652 1.43.978 2.368.978.753 0 1.441-.226 2.042-.69a3.404 3.404 0 0 0 1.178-1.794h-1.365c-.176.351-.426.639-.74.865a2.086 2.086 0 0 1-1.115.327 2.002 2.002 0 0 1-1.466-.616 1.95 1.95 0 0 1-.601-1.48 1.952 1.952 0 0 1 .601-1.48c.401-.402.89-.615 1.466-.615.402 0 .764.112 1.115.34.314.213.564.513.74.864h1.365a3.347 3.347 0 0 0-1.178-1.793 3.128 3.128 0 0 0-2.042-.704zm19.083 2.146a2.64 2.64 0 0 0-1.93-.803c-.738 0-1.378.264-1.903.803a2.653 2.653 0 0 0-.802 1.945c0 .753.262 1.405.802 1.932.525.54 1.165.815 1.904.815.74 0 1.39-.275 1.93-.815a2.64 2.64 0 0 0 .79-1.932c0-.753-.264-1.404-.79-1.945zm-.915 2.961c-.275.29-.612.427-1.014.427a1.33 1.33 0 0 1-1.002-.427c-.276-.288-.427-.627-.427-1.016 0-.414.151-.753.427-1.029a1.281 1.281 0 0 1 1.002-.413 1.33 1.33 0 0 1 1.026.413c.265.276.402.615.415 1.029-.013.389-.15.728-.427 1.016zM14.156 24.89c-.717 0-1.305-.256-1.764-.716-.663-.661-.644-1.48-.644-2.61s-.019-1.948.644-2.61c.46-.459 1.047-.717 1.764-.717.836 0 1.35.295 1.82.754l-.846.845c-.285-.284-.514-.459-.974-.459-.35 0-.625.128-.809.34-.248.276-.322.588-.322 1.847 0 1.26.074 1.572.322 1.848.184.21.46.34.809.34.46 0 .69-.176.974-.46l.846.845c-.47.46-.984.754-1.82.754M19.468 22.814h-.946c-.432 0-.671.202-.671.542 0 .33.22.552.688.552.332 0 .543-.028.754-.23.129-.12.175-.313.175-.607v-.257zm.027 2.021v-.413c-.321.322-.624.46-1.176.46-.542 0-.937-.138-1.222-.423-.258-.267-.395-.653-.395-1.075 0-.763.523-1.388 1.635-1.388h1.13v-.24c0-.523-.256-.752-.89-.752-.46 0-.671.11-.92.394l-.762-.744c.468-.515.928-.662 1.728-.662 1.34 0 2.04.57 2.04 1.691v3.152h-1.168zM24.734 24.836V21.94c0-.653-.414-.873-.79-.873-.377 0-.8.22-.8.873v2.895H21.95v-4.788h1.166v.441c.313-.33.754-.496 1.195-.496.478 0 .864.156 1.13.422.387.386.488.837.488 1.36v3.06h-1.195zM29.641 22.814h-.946c-.432 0-.671.202-.671.542 0 .33.22.552.69.552.33 0 .541-.028.753-.23.128-.12.174-.313.174-.607v-.257zm.028 2.021v-.413c-.321.322-.625.46-1.176.46-.543 0-.938-.138-1.223-.423-.257-.267-.395-.653-.395-1.075 0-.763.524-1.388 1.636-1.388h1.13v-.24c0-.523-.257-.752-.891-.752-.46 0-.671.11-.919.394l-.763-.744c.47-.515.928-.662 1.728-.662 1.341 0 2.04.57 2.04 1.691v3.152H29.67zM33.474 24.836c-.984 0-1.398-.69-1.398-1.37v-5.173h1.195v5.1c0 .285.12.431.423.431h.46v1.012h-.68z"/>
        </g>
    </g>
</svg>
