<svg xmlns="http://www.w3.org/2000/svg" xmlns:xlink="http://www.w3.org/1999/xlink" width="38" height="42" viewBox="0 0 38 42">
    <defs>
        <path id="a" d="M0 .337h6.134v6.225H0z"/>
        <path id="c" d="M.07.2h1.645v1.716H.07z"/>
    </defs>
    <g fill="none" fill-rule="evenodd">
        <g transform="translate(0 35.238)">
            <mask id="b" fill="#fff">
                <use xlink:href="#a"/>
            </mask>
            <path fill="#000" d="M3.113 1.246a2.212 2.212 0 0 1 2.03 1.325l.035.081h.956l-.059-.179A3.067 3.067 0 0 0 4.95.933 3.047 3.047 0 0 0 3.113.337a3.01 3.01 0 0 0-2.201.912A3.016 3.016 0 0 0 0 3.45c0 .855.308 1.595.912 2.2a3.01 3.01 0 0 0 2.201.912c.677 0 1.295-.202 1.836-.6.54-.4.919-.919 1.126-1.546l.06-.179h-.957l-.035.082a2.22 2.22 0 0 1-.808.967 2.15 2.15 0 0 1-1.222.367 2.13 2.13 0 0 1-1.556-.647A2.093 2.093 0 0 1 .91 3.455c0-.608.217-1.134.647-1.563.43-.428.953-.646 1.556-.646" mask="url(#b)"/>
        </g>
        <path fill="#000" d="M9.743 40.89a2.101 2.101 0 0 1-1.559-.646 2.099 2.099 0 0 1-.644-1.552c0-.608.216-1.134.644-1.562.427-.429.952-.647 1.559-.647.615 0 1.125.212 1.56.647.426.429.644.955.644 1.562a2.13 2.13 0 0 1-.645 1.552 2.103 2.103 0 0 1-1.56.647m0-5.316c-.854 0-1.594.307-2.2.912a3.013 3.013 0 0 0-.911 2.2c0 .856.306 1.595.91 2.2a3.014 3.014 0 0 0 2.202.913c.855 0 1.595-.307 2.2-.912a3.01 3.01 0 0 0 .912-2.2c0-.856-.306-1.596-.911-2.201a3.014 3.014 0 0 0-2.201-.912M15.84 35.574c-.671 0-1.251.24-1.724.712A2.342 2.342 0 0 0 13.404 38v3.72h.909v-3.712c0-.424.146-.776.446-1.077.299-.3.652-.447 1.08-.447.422 0 .773.147 1.071.447.3.3.446.653.446 1.077v3.711h.908V38c0-.663-.239-1.24-.712-1.713a2.345 2.345 0 0 0-1.713-.712M21.926 36.484a2.21 2.21 0 0 1 2.03 1.325l.035.081h.956l-.058-.18a3.07 3.07 0 0 0-1.128-1.54 3.049 3.049 0 0 0-1.835-.595 3.01 3.01 0 0 0-2.201.912 3.015 3.015 0 0 0-.912 2.201c0 .855.307 1.595.912 2.2a3.012 3.012 0 0 0 2.2.912c.677 0 1.296-.202 1.837-.601a3.1 3.1 0 0 0 1.127-1.545l.058-.18h-.956l-.035.083a2.214 2.214 0 0 1-.808.967 2.15 2.15 0 0 1-1.222.367c-.612 0-1.121-.211-1.556-.647a2.092 2.092 0 0 1-.647-1.551c0-.609.217-1.134.647-1.563a2.104 2.104 0 0 1 1.556-.646M28.556 36.484c.532 0 1.004.17 1.405.509.389.328.642.744.75 1.24H26.4c.108-.493.361-.91.75-1.24.402-.338.874-.51 1.407-.51m0-.908c-.856 0-1.596.306-2.2.912a3.011 3.011 0 0 0-.912 2.201c0 .854.306 1.595.911 2.2a3.009 3.009 0 0 0 2.2.912c.67 0 1.284-.2 1.826-.596a3.117 3.117 0 0 0 1.137-1.55l.06-.18h-.957l-.036.084c-.172.403-.445.73-.811.97-.365.24-.775.363-1.218.363a2.116 2.116 0 0 1-1.406-.512 2.222 2.222 0 0 1-.748-1.237h5.267v-.454c0-.856-.307-1.596-.912-2.201a3.012 3.012 0 0 0-2.201-.912M32.837 36.194c-.412.412-.62.912-.62 1.487v4.037h.909v-4.029c0-.334.116-.613.355-.851.24-.238.518-.354.853-.354h.547v-.91h-.547a2.05 2.05 0 0 0-1.497.62M37.406 36.607v-.91h-1.068v-1.94h-.909v6.315c0 .454.164.846.487 1.165.323.32.716.481 1.169.481h.32v-.91h-.32a.711.711 0 0 1-.53-.216.7.7 0 0 1-.217-.52v-3.465h1.068zM29.58 20.63a.945.945 0 0 0-.356-.072.794.794 0 0 0-.746.506.808.808 0 0 0 .006.655c.09.191.26.345.478.433.12.05.242.074.361.074.335 0 .612-.19.742-.508.18-.444-.025-.902-.485-1.089M28.58 22.888c-.393-.27-.91-.187-1.168.189a.808.808 0 0 0-.135.642.89.89 0 0 0 .374.526c.161.11.34.168.514.168.262 0 .5-.13.656-.357.27-.396.17-.887-.24-1.168M25.957 24.745c-.35.328-.358.829-.018 1.192a.872.872 0 0 0 .633.293.791.791 0 0 0 .55-.225.81.81 0 0 0 .267-.587.877.877 0 0 0-.249-.605c-.329-.35-.849-.382-1.183-.068M24.175 26.06c-.412.244-.527.732-.273 1.16.166.28.428.44.72.44a.826.826 0 0 0 .42-.119c.412-.245.527-.732.273-1.16-.243-.41-.746-.555-1.14-.322M22.156 26.96c-.462.153-.673.595-.515 1.075.123.372.42.602.775.602.09 0 .18-.015.27-.045.455-.15.672-.602.516-1.074-.152-.457-.605-.703-1.046-.558M19.983 27.41c-.483.05-.785.436-.733.939.048.462.373.774.807.774.03 0 .062-.002.094-.005.476-.05.785-.445.734-.94-.05-.487-.425-.816-.902-.768M17.774 27.382c-.491-.057-.862.264-.919.76a.89.89 0 0 0 .154.631c.13.176.329.287.56.313a.91.91 0 0 0 .103.006c.43 0 .766-.314.817-.764a.89.89 0 0 0-.154-.628.795.795 0 0 0-.56-.318M15.629 26.88c-.451-.156-.902.077-1.062.54-.162.47.043.923.49 1.079a.863.863 0 0 0 .284.049c.355 0 .653-.226.778-.59a.887.887 0 0 0-.013-.645.795.795 0 0 0-.477-.433M13.63 25.926c-.406-.25-.897-.118-1.154.3-.26.423-.156.911.247 1.158a.84.84 0 0 0 .437.127c.29 0 .551-.155.718-.426.259-.424.155-.911-.248-1.159M10.684 24.61a.886.886 0 0 0-.26.596.798.798 0 0 0 .257.588.814.814 0 0 0 .564.234c.23 0 .452-.1.627-.283a.886.886 0 0 0 .256-.592.793.793 0 0 0-.254-.592c-.34-.327-.854-.303-1.19.048M10.463 22.854c-.26-.39-.77-.479-1.174-.21-.413.278-.52.764-.258 1.156.158.235.403.37.672.37a.9.9 0 0 0 .502-.16.872.872 0 0 0 .384-.553.795.795 0 0 0-.126-.603M9.435 21.529a.796.796 0 0 0 .017-.644.788.788 0 0 0-.75-.525.949.949 0 0 0-.35.07.89.89 0 0 0-.487.432.797.797 0 0 0-.013.64.799.799 0 0 0 .755.524.953.953 0 0 0 .346-.067.888.888 0 0 0 .482-.43M8.166 19.683a.876.876 0 0 0 .582-.342.802.802 0 0 0 .138-.6c-.077-.473-.478-.761-.979-.68a.885.885 0 0 0-.567.318.793.793 0 0 0-.15.623.804.804 0 0 0 .818.694.94.94 0 0 0 .158-.013M7.887 17.299l.06.002c.464 0 .819-.323.844-.767.028-.487-.304-.846-.808-.876-.504-.033-.877.294-.905.765a.811.811 0 0 0 .211.609.88.88 0 0 0 .598.267M8.128 14.907a.97.97 0 0 0 .264.037.795.795 0 0 0 .783-.59.813.813 0 0 0-.077-.651.889.889 0 0 0-.523-.378c-.476-.135-.921.102-1.048.553a.813.813 0 0 0 .075.64c.11.185.296.324.526.389M8.88 12.623c.139.074.289.113.436.113.298 0 .562-.16.705-.428a.811.811 0 0 0 .064-.653.892.892 0 0 0-.43-.482c-.429-.23-.924-.091-1.143.316-.225.422-.07.9.368 1.134M10.68 10.772a.794.794 0 0 0 .607-.287c.316-.37.27-.857-.114-1.186-.37-.317-.883-.289-1.184.062a.812.812 0 0 0-.2.612c.021.215.133.42.314.575.17.144.373.224.577.224M12.423 9.152a.8.8 0 0 0 .486-.167.807.807 0 0 0 .332-.566.88.88 0 0 0-.187-.617c-.29-.386-.801-.471-1.168-.195a.808.808 0 0 0-.326.537c-.032.22.033.45.18.646a.86.86 0 0 0 .683.362M15.219 6.74c-.204-.443-.675-.634-1.1-.44a.814.814 0 0 0-.44.472.874.874 0 0 0 .044.653c.146.319.436.518.756.518a.82.82 0 0 0 .344-.077c.443-.203.605-.665.396-1.125M17.55 6.17c-.104-.482-.518-.765-.98-.665a.811.811 0 0 0-.53.366.879.879 0 0 0-.097.648c.09.41.41.686.8.686.058 0 .12-.007.18-.02.477-.104.734-.52.628-1.014M19.963 6.113a.885.885 0 0 0-.223-.611.8.8 0 0 0-.594-.25c-.478 0-.826.36-.827.855-.002.497.34.86.814.86h.003c.484 0 .824-.35.827-.854zM22.32 6.575c.107-.485-.15-.912-.61-1.017-.457-.102-.89.184-.995.656a.88.88 0 0 0 .086.64.79.79 0 0 0 .523.377.914.914 0 0 0 .2.023c.39 0 .701-.267.795-.68M24.53 7.537c.1-.216.12-.446.055-.648a.797.797 0 0 0-.432-.475.847.847 0 0 0-.36-.083c-.321 0-.603.191-.752.51-.21.451-.052.924.376 1.124.12.056.243.084.365.084.319 0 .598-.191.748-.512M25.304 9.127a.822.822 0 0 0 .503.177c.255 0 .5-.13.675-.357.302-.395.25-.89-.128-1.178-.366-.28-.886-.202-1.177.18a.885.885 0 0 0-.19.617c.02.22.133.42.317.56M27.513 10.969a.89.89 0 0 0 .572-.221c.38-.32.435-.816.13-1.178-.3-.355-.82-.392-1.19-.08-.38.32-.434.815-.13 1.177a.801.801 0 0 0 .618.302M28.15 12.547a.789.789 0 0 0 .711.445.938.938 0 0 0 .434-.112.886.886 0 0 0 .436-.483.798.798 0 0 0-.056-.64c-.217-.41-.717-.558-1.145-.332-.44.23-.6.703-.38 1.122M32.55 21.02a.879.879 0 0 0-.505-.416.965.965 0 0 0-.309-.053c-.357 0-.65.21-.766.55a.811.811 0 0 0 .044.654c.1.185.28.33.502.405.105.036.211.053.315.053.354 0 .646-.21.76-.55a.81.81 0 0 0-.04-.643M31.12 23.111c-.417-.232-.926-.102-1.147.294a.81.81 0 0 0-.076.652c.066.2.215.374.42.49a.938.938 0 0 0 .455.123.781.781 0 0 0 .693-.417c.234-.419.09-.898-.345-1.142M29.82 25.252c-.368-.306-.891-.27-1.182.079a.809.809 0 0 0-.197.596c.021.22.137.43.328.588.172.143.37.22.57.22a.787.787 0 0 0 .612-.299.812.812 0 0 0 .192-.615.88.88 0 0 0-.322-.57M26.98 26.964a.809.809 0 0 0-.306.58.883.883 0 0 0 .214.608.86.86 0 0 0 .661.334.806.806 0 0 0 .515-.193c.37-.305.408-.805.092-1.188-.305-.368-.825-.431-1.176-.141M25.046 28.262c-.426.236-.553.71-.308 1.152.16.289.433.462.73.462a.823.823 0 0 0 .4-.107c.42-.232.55-.716.309-1.151-.234-.421-.729-.579-1.13-.356M22.9 29.186c-.463.154-.674.596-.515 1.075.122.372.42.603.775.603.089 0 .18-.016.27-.046a.81.81 0 0 0 .488-.42.88.88 0 0 0 .027-.655c-.151-.456-.606-.703-1.045-.557M20.625 29.699a.806.806 0 0 0-.549.307.876.876 0 0 0-.155.654c.06.449.384.75.804.75a.85.85 0 0 0 .12-.009c.476-.065.771-.469.704-.962-.065-.481-.456-.805-.924-.74M18.302 29.783h-.05c-.458 0-.796.335-.82.816-.025.496.3.874.773.898l.046.001c.452 0 .799-.343.822-.816.025-.496-.298-.874-.771-.899M15.998 29.435c-.464-.113-.889.161-1.006.64-.116.483.133.914.592 1.026.07.016.14.025.209.025.386 0 .7-.26.797-.665a.888.888 0 0 0-.075-.641.796.796 0 0 0-.517-.385M13.808 28.671c-.434-.196-.904-.005-1.107.44a.875.875 0 0 0-.038.674.797.797 0 0 0 .427.445.851.851 0 0 0 .352.079c.326 0 .609-.194.756-.518.206-.453.042-.923-.39-1.12M11.77 27.507c-.387-.27-.892-.166-1.168.233a.878.878 0 0 0-.16.656.803.803 0 0 0 .34.514c.145.1.309.154.475.154a.848.848 0 0 0 .695-.387.886.886 0 0 0 .16-.625.788.788 0 0 0-.342-.545M8.806 26.008c-.354.349-.37.848-.039 1.184.161.163.366.252.582.252.22 0 .437-.094.61-.265a.887.887 0 0 0 .275-.585.798.798 0 0 0-.237-.599c-.33-.336-.845-.329-1.191.013M8.536 24.181a.788.788 0 0 0-.667-.37.914.914 0 0 0-.506.162c-.413.278-.521.764-.258 1.157a.805.805 0 0 0 .672.368.899.899 0 0 0 .502-.161.888.888 0 0 0 .378-.523.795.795 0 0 0-.121-.633M7.436 22.772a.796.796 0 0 0-.002-.644c-.187-.434-.666-.615-1.117-.42a.883.883 0 0 0-.47.448.795.795 0 0 0 .006.642c.134.313.413.499.744.499.124 0 .25-.027.371-.08a.89.89 0 0 0 .468-.445M6.07 20.895c.484-.11.761-.524.656-.986-.103-.462-.538-.726-1.018-.617-.485.109-.762.524-.658.986.089.39.404.642.803.642.07 0 .144-.008.217-.025M5.612 18.442a.888.888 0 0 0 .597-.246.798.798 0 0 0 .23-.6c-.017-.47-.366-.797-.848-.797h-.04a.885.885 0 0 0-.601.248.798.798 0 0 0-.227.6c.018.461.375.796.85.796h.039zM5.616 15.943c.05.008.101.012.15.012.428 0 .759-.278.82-.69a.81.81 0 0 0-.158-.637.892.892 0 0 0-.566-.31c-.502-.075-.9.217-.97.68-.036.229.02.45.153.624a.88.88 0 0 0 .571.321M6.076 13.507a.953.953 0 0 0 .319.056.79.79 0 0 0 .762-.54.812.812 0 0 0-.036-.655.885.885 0 0 0-.497-.41c-.462-.164-.926.046-1.081.483-.16.451.064.9.533 1.066M6.99 11.176a.927.927 0 0 0 .458.127.784.784 0 0 0 .693-.408c.243-.423.105-.893-.332-1.145a.934.934 0 0 0-.462-.13c-.288 0-.54.15-.69.411a.809.809 0 0 0-.083.639c.062.207.21.387.416.506M8.89 9.278c.233 0 .45-.102.607-.287.315-.371.268-.859-.117-1.187-.37-.316-.883-.287-1.183.065-.31.365-.262.864.117 1.186a.895.895 0 0 0 .575.223M10.668 7.564a.802.802 0 0 0 .506-.184c.38-.306.423-.794.106-1.187-.306-.38-.815-.446-1.174-.156-.374.302-.418.8-.107 1.188.174.215.419.339.67.339M13.122 6.106c.429-.23.561-.702.322-1.148-.23-.427-.718-.588-1.126-.369a.816.816 0 0 0-.408.499.877.877 0 0 0 .086.649c.158.294.434.47.737.47a.815.815 0 0 0 .39-.1M15.279 5.208a.81.81 0 0 0 .5-.424.889.889 0 0 0 .027-.645c-.149-.468-.59-.712-1.038-.57-.457.146-.678.595-.528 1.069.119.37.425.61.783.61a.844.844 0 0 0 .256-.04M17.561 4.722a.81.81 0 0 0 .57-.325.883.883 0 0 0 .146-.628c-.061-.492-.438-.81-.916-.751a.812.812 0 0 0-.56.317.883.883 0 0 0-.156.636c.055.447.388.758.809.758a.86.86 0 0 0 .107-.007M20.767 3.862a.891.891 0 0 0-.186-.623.798.798 0 0 0-.575-.285c-.486-.03-.848.31-.88.804a.888.888 0 0 0 .185.62.796.796 0 0 0 .638.29c.452 0 .788-.331.818-.806M23.203 4.417a.881.881 0 0 0-.068-.647.797.797 0 0 0-.512-.387c-.455-.115-.892.155-1.013.628-.122.482.122.917.58 1.033.075.02.15.03.223.03.378 0 .688-.259.79-.657M25.486 5.411c.212-.45.054-.923-.374-1.123a.845.845 0 0 0-.361-.083c-.322 0-.603.19-.753.509-.21.45-.053.922.376 1.123.12.056.243.085.366.085.318 0 .596-.191.746-.51M27.565 6.806c.288-.406.218-.899-.168-1.173-.377-.27-.893-.171-1.171.219a.872.872 0 0 0-.164.655c.035.207.152.39.331.518a.83.83 0 0 0 .483.162c.265 0 .516-.14.69-.381M28.73 8.818a.884.884 0 0 0 .606-.26.888.888 0 0 0 .284-.585.8.8 0 0 0-.23-.599c-.32-.332-.847-.334-1.194-.001-.357.344-.38.842-.053 1.183a.803.803 0 0 0 .586.262M29.582 10.386c.157.241.402.38.672.38.169 0 .341-.055.498-.157.416-.273.53-.758.271-1.154-.253-.388-.767-.486-1.171-.222a.884.884 0 0 0-.384.52.796.796 0 0 0 .114.633M30.664 11.84a.795.795 0 0 0-.005.645.79.79 0 0 0 .743.51.962.962 0 0 0 .368-.077.883.883 0 0 0 .476-.443.794.794 0 0 0 .002-.641c-.178-.428-.665-.62-1.11-.433a.889.889 0 0 0-.474.44M34.331 20.584c-.467-.13-.923.115-1.045.557a.816.816 0 0 0 .081.652c.11.179.297.312.524.375.09.025.18.037.267.037.373 0 .679-.233.779-.594.128-.462-.127-.894-.606-1.027M33.595 23.054a.936.936 0 0 0-.389-.087.787.787 0 0 0-.73.475c-.202.443-.021.9.439 1.108.13.06.261.09.393.09.319 0 .59-.179.726-.478a.812.812 0 0 0 .021-.643.871.871 0 0 0-.46-.465M32.497 25.28c-.4-.263-.916-.173-1.166.208a.812.812 0 0 0-.125.644c.05.205.187.39.384.52.157.104.332.16.503.16a.79.79 0 0 0 .663-.368.815.815 0 0 0 .124-.633.876.876 0 0 0-.383-.53M29.88 27.321a.813.813 0 0 0-.224.617c.019.21.123.414.296.572.174.16.386.248.597.248.22 0 .43-.095.588-.268.324-.353.294-.853-.072-1.19-.351-.321-.877-.314-1.184.021M28.163 28.899c-.381.302-.428.79-.115 1.187.177.223.415.347.67.347.179 0 .353-.063.503-.182a.81.81 0 0 0 .314-.562.877.877 0 0 0-.199-.624c-.296-.374-.814-.45-1.173-.166M26.217 30.191a.81.81 0 0 0-.404.517.886.886 0 0 0 .103.637c.162.286.434.456.727.456.14 0 .276-.036.406-.11.417-.234.544-.72.3-1.153-.236-.418-.732-.573-1.132-.347M24.087 31.165a.809.809 0 0 0-.48.447.88.88 0 0 0 .003.645c.132.355.426.575.768.575a.855.855 0 0 0 .77-.493.878.878 0 0 0 .004-.654c-.17-.454-.63-.682-1.065-.52M21.838 31.792a.812.812 0 0 0-.544.368.885.885 0 0 0-.098.637c.085.424.398.698.796.698a.9.9 0 0 0 .175-.018c.47-.095.74-.517.642-1.004-.097-.476-.495-.777-.971-.681M19.55 32.06h-.037a.812.812 0 0 0-.595.277.893.893 0 0 0-.197.614c.02.486.355.825.815.825h.036c.48-.02.812-.395.792-.892-.019-.478-.362-.825-.815-.825M17.179 31.957c-.491-.059-.864.261-.923.755-.059.494.24.892.71.948a.833.833 0 0 0 .106.007c.427 0 .762-.313.816-.761a.888.888 0 0 0-.15-.628.796.796 0 0 0-.56-.321M14.89 31.488c-.457-.13-.896.13-1.028.6a.872.872 0 0 0 .062.672.802.802 0 0 0 .49.376.88.88 0 0 0 .238.034c.37 0 .682-.25.79-.634a.886.886 0 0 0-.05-.644.795.795 0 0 0-.501-.404M12.697 30.664c-.434-.2-.905-.011-1.11.433a.879.879 0 0 0-.051.648.796.796 0 0 0 .433.473c.116.054.235.08.357.08.323 0 .605-.192.753-.513a.883.883 0 0 0 .05-.644.795.795 0 0 0-.432-.477M10.67 29.514c-.394-.262-.895-.15-1.165.255-.276.413-.19.904.202 1.167a.832.832 0 0 0 .462.145.845.845 0 0 0 .703-.399c.276-.414.19-.905-.202-1.168M7.654 28.123a.886.886 0 0 0-.251.6c0 .22.095.427.265.585a.824.824 0 0 0 .558.226.864.864 0 0 0 .632-.292c.34-.365.333-.863-.015-1.186-.347-.321-.858-.29-1.19.067M7.27 26.329c-.29-.372-.802-.422-1.184-.122a.89.89 0 0 0-.343.553.799.799 0 0 0 .17.62c.163.206.389.32.638.32a.89.89 0 0 0 .548-.2.882.882 0 0 0 .338-.55.792.792 0 0 0-.167-.621M5.986 24.37a.79.79 0 0 0-.7-.428.933.933 0 0 0-.452.123c-.435.241-.584.716-.353 1.13a.805.805 0 0 0 .706.427c.15 0 .304-.041.445-.12.435-.242.584-.717.354-1.131M5.026 22.241a.787.787 0 0 0-.757-.542c-.111 0-.222.02-.334.06-.466.171-.687.617-.525 1.062a.8.8 0 0 0 .764.542c.107 0 .218-.02.326-.06.467-.17.688-.617.526-1.062M3.723 20.95c.487-.096.775-.503.685-.967-.092-.467-.514-.742-1.002-.647-.488.096-.776.503-.685.968a.807.807 0 0 0 .81.664 1 1 0 0 0 .192-.018M3.324 18.509a.886.886 0 0 0 .596-.246.797.797 0 0 0 .233-.601c-.018-.469-.366-.797-.85-.797h-.038a.887.887 0 0 0-.601.247.798.798 0 0 0-.227.6c.016.462.373.797.848.797h.039zM3.315 16.03c.042.006.084.009.125.009.435 0 .775-.294.827-.713a.808.808 0 0 0-.176-.632.885.885 0 0 0-.573-.295c-.503-.063-.895.238-.953.705a.809.809 0 0 0 .171.621.88.88 0 0 0 .579.306M3.698 13.585c.09.027.18.04.27.04.373 0 .678-.23.782-.586a.815.815 0 0 0-.075-.652.89.89 0 0 0-.52-.38c-.475-.138-.922.096-1.051.545a.808.808 0 0 0 .07.64.877.877 0 0 0 .524.393M4.46 11.231c.129.06.262.09.396.09.317 0 .59-.174.726-.466a.817.817 0 0 0 .028-.657.886.886 0 0 0-.456-.456c-.443-.206-.927-.042-1.122.377a.81.81 0 0 0-.03.644c.08.201.242.367.457.468M5.578 9.02a.907.907 0 0 0 .508.163c.266 0 .506-.13.66-.359a.809.809 0 0 0 .13-.643.885.885 0 0 0-.377-.522c-.4-.272-.91-.185-1.168.195a.81.81 0 0 0-.133.613.868.868 0 0 0 .38.553M7.63 7.268c.218 0 .425-.092.583-.26a.81.81 0 0 0 .23-.615.883.883 0 0 0-.29-.575c-.353-.33-.872-.326-1.186.008a.813.813 0 0 0-.227.603.876.876 0 0 0 .287.588c.173.161.387.25.602.25M9.454 5.619c.177 0 .348-.06.495-.175.384-.298.437-.784.128-1.184-.296-.381-.808-.46-1.172-.178-.378.293-.432.792-.127 1.185.172.224.42.352.676.352M11.518 4.274a.813.813 0 0 0 .394-.103c.428-.235.555-.708.312-1.15-.233-.426-.723-.583-1.129-.36a.812.812 0 0 0-.403.502.879.879 0 0 0 .092.648c.16.29.433.463.734.463M14.535 2.133c-.166-.46-.621-.688-1.06-.53a.817.817 0 0 0-.47.417.867.867 0 0 0-.017.67c.13.359.426.581.775.581.095 0 .19-.016.284-.05.457-.165.658-.612.488-1.088M16.96 1.617c-.092-.48-.49-.78-.963-.69-.47.09-.745.51-.652.998.081.422.403.705.802.705a.926.926 0 0 0 .162-.015c.477-.092.746-.502.651-.998"/>
        <g transform="translate(17.719 .456)">
            <mask id="d" fill="#fff">
                <use xlink:href="#c"/>
            </mask>
            <path fill="#000" d="M1.714 1.033C1.7.543 1.364.2.9.2H.872C.392.214.056.586.07 1.083c.014.483.357.833.814.833h.028a.806.806 0 0 0 .577-.247.88.88 0 0 0 .224-.636z" mask="url(#d)"/>
        </g>
        <path fill="#000" d="M21.893 1.754a.883.883 0 0 0-.145-.634.797.797 0 0 0-.554-.322c-.477-.062-.87.262-.932.746a.888.888 0 0 0 .145.629c.128.18.325.297.556.326a.972.972 0 0 0 .12.008c.427 0 .752-.303.81-.753M24.284 2.403c.14-.477-.087-.92-.54-1.053-.452-.134-.9.125-1.037.59-.14.476.087.92.542 1.053a.88.88 0 0 0 .254.038c.368 0 .667-.24.781-.628M26.549 3.418a.888.888 0 0 0 .058-.648.797.797 0 0 0-.429-.477.835.835 0 0 0-.363-.084c-.32 0-.601.19-.752.506a.89.89 0 0 0-.057.643.797.797 0 0 0 .429.481c.12.058.244.087.368.087.317 0 .596-.19.746-.508M27.456 5.014c.147.1.31.153.472.153.27 0 .524-.144.695-.394.28-.41.202-.902-.189-1.17-.384-.262-.895-.156-1.167.242-.281.41-.202.901.189 1.169M29.826 6.724a.87.87 0 0 0 .628-.289.89.89 0 0 0 .257-.598.795.795 0 0 0-.26-.586c-.335-.318-.86-.295-1.19.053-.342.361-.34.86.003 1.185a.81.81 0 0 0 .562.235M30.817 8.233c.164.213.39.33.64.33.19 0 .377-.068.545-.196a.887.887 0 0 0 .347-.55.795.795 0 0 0-.163-.62c-.28-.367-.803-.428-1.185-.135-.394.303-.471.796-.184 1.17M32.02 9.562a.795.795 0 0 0 .062.642.788.788 0 0 0 .705.435c.148 0 .3-.041.443-.118a.885.885 0 0 0 .429-.489.794.794 0 0 0-.065-.638c-.219-.406-.724-.547-1.148-.318a.888.888 0 0 0-.425.486M33.02 12.44c.122.344.406.55.76.55.107 0 .216-.02.324-.057.469-.166.695-.61.537-1.056-.156-.44-.624-.656-1.086-.494-.468.167-.693.611-.536 1.057M20.69 14.435l4.59 2.642-4.583 2.653-4.584 2.654-.005-5.296-.007-5.296z"/>
    </g>
</svg>
