<svg xmlns="http://www.w3.org/2000/svg" width="226" height="216" viewBox="0 0 226 216">
    <path fill="#969292" fill-rule="nonzero" d="M165.604 89.143c10.256 0 20.512 2.286 28.489 6.857 6.837-10.286 11.395-20.571 12.535-29.714 3.418-19.429 0-34.286-7.977-45.715C189.534 9.143 175.86 2.286 156.488 0h-4.559c-17.093 0-36.465 8-47.86 24C92.672 8 73.3 0 56.206 0H51.65C32.277 1.143 18.602 8 9.486 19.429.369 30.857-1.91 45.714 1.509 65.143 9.486 112 94.952 186.286 98.37 189.714c1.14 1.143 3.418 2.286 5.697 2.286h3.419c-5.698-10.286-9.116-21.714-9.116-34.286 0-38.857 29.628-68.571 67.233-68.571zm0 5.714c-33.047 0-60.396 27.429-60.396 60.572 0 33.142 27.349 60.571 60.396 60.571S226 188.571 226 155.429c0-33.143-27.35-60.572-60.396-60.572zm0 112c-28.489 0-51.28-22.857-51.28-51.428 0-28.572 22.791-51.429 51.28-51.429s51.28 22.857 51.28 51.429c0 28.571-22.791 51.428-51.28 51.428zM202.069 144v21.714H177V192h-21.651v-26.286h-25.07V144h25.07v-25.143h21.651V144h25.07z"/>
</svg>
